%TF.GenerationSoftware,KiCad,Pcbnew,6.0.11+dfsg-1*%
%TF.CreationDate,2023-02-20T23:54:33-08:00*%
%TF.ProjectId,minusz-end-card-oresat0,6d696e75-737a-42d6-956e-642d63617264,rev?*%
%TF.SameCoordinates,Original*%
%TF.FileFunction,Legend,Top*%
%TF.FilePolarity,Positive*%
%FSLAX46Y46*%
G04 Gerber Fmt 4.6, Leading zero omitted, Abs format (unit mm)*
G04 Created by KiCad (PCBNEW 6.0.11+dfsg-1) date 2023-02-20 23:54:33*
%MOMM*%
%LPD*%
G01*
G04 APERTURE LIST*
G04 Aperture macros list*
%AMHorizOval*
0 Thick line with rounded ends*
0 $1 width*
0 $2 $3 position (X,Y) of the first rounded end (center of the circle)*
0 $4 $5 position (X,Y) of the second rounded end (center of the circle)*
0 Add line between two ends*
20,1,$1,$2,$3,$4,$5,0*
0 Add two circle primitives to create the rounded ends*
1,1,$1,$2,$3*
1,1,$1,$4,$5*%
%AMFreePoly0*
4,1,27,0.429980,2.587373,0.456042,2.542232,0.457200,2.529000,0.457200,0.751000,0.439373,0.702020,0.394232,0.675958,0.381000,0.674800,0.266200,0.674800,0.266200,-0.250000,0.248373,-0.298980,0.203232,-0.325042,0.190000,-0.326200,-0.190000,-0.326200,-0.238980,-0.308373,-0.265042,-0.263232,-0.266200,-0.250000,-0.266200,0.674800,-0.381000,0.674800,-0.429980,0.692627,-0.456042,0.737768,
-0.457200,0.751000,-0.457200,2.529000,-0.439373,2.577980,-0.394232,2.604042,-0.381000,2.605200,0.381000,2.605200,0.429980,2.587373,0.429980,2.587373,$1*%
G04 Aperture macros list end*
%ADD10C,0.200000*%
%ADD11C,0.150000*%
%ADD12C,0.101600*%
%ADD13C,0.127000*%
%ADD14C,0.120000*%
%ADD15C,2.400000*%
%ADD16C,3.000000*%
%ADD17C,5.000000*%
%ADD18FreePoly0,0.000000*%
%ADD19C,1.100000*%
%ADD20O,1.092200X2.057400*%
%ADD21C,2.000000*%
%ADD22R,1.000000X1.050000*%
%ADD23R,1.050000X2.200000*%
%ADD24C,1.600000*%
%ADD25C,3.700000*%
%ADD26HorizOval,1.477000X-0.361186X-0.570237X0.361186X0.570237X0*%
G04 APERTURE END LIST*
D10*
X155987142Y-139714285D02*
X156415714Y-140914285D01*
X156844285Y-139714285D01*
X158472857Y-140914285D02*
X157444285Y-140914285D01*
X157958571Y-140914285D02*
X157958571Y-139114285D01*
X157787142Y-139371428D01*
X157615714Y-139542857D01*
X157444285Y-139628571D01*
X159244285Y-140742857D02*
X159330000Y-140828571D01*
X159244285Y-140914285D01*
X159158571Y-140828571D01*
X159244285Y-140742857D01*
X159244285Y-140914285D01*
X160444285Y-139114285D02*
X160615714Y-139114285D01*
X160787142Y-139200000D01*
X160872857Y-139285714D01*
X160958571Y-139457142D01*
X161044285Y-139800000D01*
X161044285Y-140228571D01*
X160958571Y-140571428D01*
X160872857Y-140742857D01*
X160787142Y-140828571D01*
X160615714Y-140914285D01*
X160444285Y-140914285D01*
X160272857Y-140828571D01*
X160187142Y-140742857D01*
X160101428Y-140571428D01*
X160015714Y-140228571D01*
X160015714Y-139800000D01*
X160101428Y-139457142D01*
X160187142Y-139285714D01*
X160272857Y-139200000D01*
X160444285Y-139114285D01*
X164472857Y-139285714D02*
X164558571Y-139200000D01*
X164730000Y-139114285D01*
X165158571Y-139114285D01*
X165330000Y-139200000D01*
X165415714Y-139285714D01*
X165501428Y-139457142D01*
X165501428Y-139628571D01*
X165415714Y-139885714D01*
X164387142Y-140914285D01*
X165501428Y-140914285D01*
X166615714Y-139114285D02*
X166787142Y-139114285D01*
X166958571Y-139200000D01*
X167044285Y-139285714D01*
X167130000Y-139457142D01*
X167215714Y-139800000D01*
X167215714Y-140228571D01*
X167130000Y-140571428D01*
X167044285Y-140742857D01*
X166958571Y-140828571D01*
X166787142Y-140914285D01*
X166615714Y-140914285D01*
X166444285Y-140828571D01*
X166358571Y-140742857D01*
X166272857Y-140571428D01*
X166187142Y-140228571D01*
X166187142Y-139800000D01*
X166272857Y-139457142D01*
X166358571Y-139285714D01*
X166444285Y-139200000D01*
X166615714Y-139114285D01*
X167901428Y-139285714D02*
X167987142Y-139200000D01*
X168158571Y-139114285D01*
X168587142Y-139114285D01*
X168758571Y-139200000D01*
X168844285Y-139285714D01*
X168930000Y-139457142D01*
X168930000Y-139628571D01*
X168844285Y-139885714D01*
X167815714Y-140914285D01*
X168930000Y-140914285D01*
X169530000Y-139114285D02*
X170644285Y-139114285D01*
X170044285Y-139800000D01*
X170301428Y-139800000D01*
X170472857Y-139885714D01*
X170558571Y-139971428D01*
X170644285Y-140142857D01*
X170644285Y-140571428D01*
X170558571Y-140742857D01*
X170472857Y-140828571D01*
X170301428Y-140914285D01*
X169787142Y-140914285D01*
X169615714Y-140828571D01*
X169530000Y-140742857D01*
X171415714Y-140228571D02*
X172787142Y-140228571D01*
X173987142Y-139114285D02*
X174158571Y-139114285D01*
X174330000Y-139200000D01*
X174415714Y-139285714D01*
X174501428Y-139457142D01*
X174587142Y-139800000D01*
X174587142Y-140228571D01*
X174501428Y-140571428D01*
X174415714Y-140742857D01*
X174330000Y-140828571D01*
X174158571Y-140914285D01*
X173987142Y-140914285D01*
X173815714Y-140828571D01*
X173730000Y-140742857D01*
X173644285Y-140571428D01*
X173558571Y-140228571D01*
X173558571Y-139800000D01*
X173644285Y-139457142D01*
X173730000Y-139285714D01*
X173815714Y-139200000D01*
X173987142Y-139114285D01*
X175272857Y-139285714D02*
X175358571Y-139200000D01*
X175530000Y-139114285D01*
X175958571Y-139114285D01*
X176130000Y-139200000D01*
X176215714Y-139285714D01*
X176301428Y-139457142D01*
X176301428Y-139628571D01*
X176215714Y-139885714D01*
X175187142Y-140914285D01*
X176301428Y-140914285D01*
X177072857Y-140228571D02*
X178444285Y-140228571D01*
X180244285Y-140914285D02*
X179215714Y-140914285D01*
X179730000Y-140914285D02*
X179730000Y-139114285D01*
X179558571Y-139371428D01*
X179387142Y-139542857D01*
X179215714Y-139628571D01*
X181101428Y-140914285D02*
X181444285Y-140914285D01*
X181615714Y-140828571D01*
X181701428Y-140742857D01*
X181872857Y-140485714D01*
X181958571Y-140142857D01*
X181958571Y-139457142D01*
X181872857Y-139285714D01*
X181787142Y-139200000D01*
X181615714Y-139114285D01*
X181272857Y-139114285D01*
X181101428Y-139200000D01*
X181015714Y-139285714D01*
X180930000Y-139457142D01*
X180930000Y-139885714D01*
X181015714Y-140057142D01*
X181101428Y-140142857D01*
X181272857Y-140228571D01*
X181615714Y-140228571D01*
X181787142Y-140142857D01*
X181872857Y-140057142D01*
X181958571Y-139885714D01*
X154001428Y-136414285D02*
X154344285Y-136414285D01*
X154515714Y-136500000D01*
X154687142Y-136671428D01*
X154772857Y-137014285D01*
X154772857Y-137614285D01*
X154687142Y-137957142D01*
X154515714Y-138128571D01*
X154344285Y-138214285D01*
X154001428Y-138214285D01*
X153830000Y-138128571D01*
X153658571Y-137957142D01*
X153572857Y-137614285D01*
X153572857Y-137014285D01*
X153658571Y-136671428D01*
X153830000Y-136500000D01*
X154001428Y-136414285D01*
X155544285Y-138214285D02*
X155544285Y-137014285D01*
X155544285Y-137357142D02*
X155630000Y-137185714D01*
X155715714Y-137100000D01*
X155887142Y-137014285D01*
X156058571Y-137014285D01*
X157344285Y-138128571D02*
X157172857Y-138214285D01*
X156830000Y-138214285D01*
X156658571Y-138128571D01*
X156572857Y-137957142D01*
X156572857Y-137271428D01*
X156658571Y-137100000D01*
X156830000Y-137014285D01*
X157172857Y-137014285D01*
X157344285Y-137100000D01*
X157430000Y-137271428D01*
X157430000Y-137442857D01*
X156572857Y-137614285D01*
X158115714Y-138128571D02*
X158372857Y-138214285D01*
X158801428Y-138214285D01*
X158972857Y-138128571D01*
X159058571Y-138042857D01*
X159144285Y-137871428D01*
X159144285Y-137700000D01*
X159058571Y-137528571D01*
X158972857Y-137442857D01*
X158801428Y-137357142D01*
X158458571Y-137271428D01*
X158287142Y-137185714D01*
X158201428Y-137100000D01*
X158115714Y-136928571D01*
X158115714Y-136757142D01*
X158201428Y-136585714D01*
X158287142Y-136500000D01*
X158458571Y-136414285D01*
X158887142Y-136414285D01*
X159144285Y-136500000D01*
X160687142Y-138214285D02*
X160687142Y-137271428D01*
X160601428Y-137100000D01*
X160430000Y-137014285D01*
X160087142Y-137014285D01*
X159915714Y-137100000D01*
X160687142Y-138128571D02*
X160515714Y-138214285D01*
X160087142Y-138214285D01*
X159915714Y-138128571D01*
X159830000Y-137957142D01*
X159830000Y-137785714D01*
X159915714Y-137614285D01*
X160087142Y-137528571D01*
X160515714Y-137528571D01*
X160687142Y-137442857D01*
X161287142Y-137014285D02*
X161972857Y-137014285D01*
X161544285Y-136414285D02*
X161544285Y-137957142D01*
X161630000Y-138128571D01*
X161801428Y-138214285D01*
X161972857Y-138214285D01*
X162915714Y-136414285D02*
X163087142Y-136414285D01*
X163258571Y-136500000D01*
X163344285Y-136585714D01*
X163430000Y-136757142D01*
X163515714Y-137100000D01*
X163515714Y-137528571D01*
X163430000Y-137871428D01*
X163344285Y-138042857D01*
X163258571Y-138128571D01*
X163087142Y-138214285D01*
X162915714Y-138214285D01*
X162744285Y-138128571D01*
X162658571Y-138042857D01*
X162572857Y-137871428D01*
X162487142Y-137528571D01*
X162487142Y-137100000D01*
X162572857Y-136757142D01*
X162658571Y-136585714D01*
X162744285Y-136500000D01*
X162915714Y-136414285D01*
X164287142Y-138042857D02*
X164372857Y-138128571D01*
X164287142Y-138214285D01*
X164201428Y-138128571D01*
X164287142Y-138042857D01*
X164287142Y-138214285D01*
X166001428Y-136414285D02*
X165144285Y-136414285D01*
X165058571Y-137271428D01*
X165144285Y-137185714D01*
X165315714Y-137100000D01*
X165744285Y-137100000D01*
X165915714Y-137185714D01*
X166001428Y-137271428D01*
X166087142Y-137442857D01*
X166087142Y-137871428D01*
X166001428Y-138042857D01*
X165915714Y-138128571D01*
X165744285Y-138214285D01*
X165315714Y-138214285D01*
X165144285Y-138128571D01*
X165058571Y-138042857D01*
X168230000Y-137528571D02*
X169601428Y-137528571D01*
X170287142Y-136414285D02*
X171487142Y-136414285D01*
X170287142Y-138214285D01*
X171487142Y-138214285D01*
X173544285Y-137271428D02*
X174144285Y-137271428D01*
X174401428Y-138214285D02*
X173544285Y-138214285D01*
X173544285Y-136414285D01*
X174401428Y-136414285D01*
X175172857Y-137014285D02*
X175172857Y-138214285D01*
X175172857Y-137185714D02*
X175258571Y-137100000D01*
X175430000Y-137014285D01*
X175687142Y-137014285D01*
X175858571Y-137100000D01*
X175944285Y-137271428D01*
X175944285Y-138214285D01*
X177572857Y-138214285D02*
X177572857Y-136414285D01*
X177572857Y-138128571D02*
X177401428Y-138214285D01*
X177058571Y-138214285D01*
X176887142Y-138128571D01*
X176801428Y-138042857D01*
X176715714Y-137871428D01*
X176715714Y-137357142D01*
X176801428Y-137185714D01*
X176887142Y-137100000D01*
X177058571Y-137014285D01*
X177401428Y-137014285D01*
X177572857Y-137100000D01*
X180830000Y-138042857D02*
X180744285Y-138128571D01*
X180487142Y-138214285D01*
X180315714Y-138214285D01*
X180058571Y-138128571D01*
X179887142Y-137957142D01*
X179801428Y-137785714D01*
X179715714Y-137442857D01*
X179715714Y-137185714D01*
X179801428Y-136842857D01*
X179887142Y-136671428D01*
X180058571Y-136500000D01*
X180315714Y-136414285D01*
X180487142Y-136414285D01*
X180744285Y-136500000D01*
X180830000Y-136585714D01*
X182372857Y-138214285D02*
X182372857Y-137271428D01*
X182287142Y-137100000D01*
X182115714Y-137014285D01*
X181772857Y-137014285D01*
X181601428Y-137100000D01*
X182372857Y-138128571D02*
X182201428Y-138214285D01*
X181772857Y-138214285D01*
X181601428Y-138128571D01*
X181515714Y-137957142D01*
X181515714Y-137785714D01*
X181601428Y-137614285D01*
X181772857Y-137528571D01*
X182201428Y-137528571D01*
X182372857Y-137442857D01*
X183230000Y-138214285D02*
X183230000Y-137014285D01*
X183230000Y-137357142D02*
X183315714Y-137185714D01*
X183401428Y-137100000D01*
X183572857Y-137014285D01*
X183744285Y-137014285D01*
X185115714Y-138214285D02*
X185115714Y-136414285D01*
X185115714Y-138128571D02*
X184944285Y-138214285D01*
X184601428Y-138214285D01*
X184430000Y-138128571D01*
X184344285Y-138042857D01*
X184258571Y-137871428D01*
X184258571Y-137357142D01*
X184344285Y-137185714D01*
X184430000Y-137100000D01*
X184601428Y-137014285D01*
X184944285Y-137014285D01*
X185115714Y-137100000D01*
D11*
X172433333Y-69952380D02*
X171957142Y-69952380D01*
X171957142Y-68952380D01*
X173290476Y-69952380D02*
X172719047Y-69952380D01*
X173004761Y-69952380D02*
X173004761Y-68952380D01*
X172909523Y-69095238D01*
X172814285Y-69190476D01*
X172719047Y-69238095D01*
X178409523Y-69952380D02*
X177933333Y-69952380D01*
X177933333Y-68952380D01*
X183861904Y-68952380D02*
X183861904Y-69761904D01*
X183909523Y-69857142D01*
X183957142Y-69904761D01*
X184052380Y-69952380D01*
X184242857Y-69952380D01*
X184338095Y-69904761D01*
X184385714Y-69857142D01*
X184433333Y-69761904D01*
X184433333Y-68952380D01*
X184909523Y-69952380D02*
X184909523Y-68952380D01*
X184909523Y-69428571D02*
X185480952Y-69428571D01*
X185480952Y-69952380D02*
X185480952Y-68952380D01*
X186290476Y-69428571D02*
X185957142Y-69428571D01*
X185957142Y-69952380D02*
X185957142Y-68952380D01*
X186433333Y-68952380D01*
D12*
%TO.C,CM2*%
X174054942Y-68512893D02*
X174029542Y-68538293D01*
X173953342Y-68563693D01*
X173902542Y-68563693D01*
X173826342Y-68538293D01*
X173775542Y-68487493D01*
X173750142Y-68436693D01*
X173724742Y-68335093D01*
X173724742Y-68258893D01*
X173750142Y-68157293D01*
X173775542Y-68106493D01*
X173826342Y-68055693D01*
X173902542Y-68030293D01*
X173953342Y-68030293D01*
X174029542Y-68055693D01*
X174054942Y-68081093D01*
X174283542Y-68563693D02*
X174283542Y-68030293D01*
X174461342Y-68411293D01*
X174639142Y-68030293D01*
X174639142Y-68563693D01*
X174867742Y-68081093D02*
X174893142Y-68055693D01*
X174943942Y-68030293D01*
X175070942Y-68030293D01*
X175121742Y-68055693D01*
X175147142Y-68081093D01*
X175172542Y-68131893D01*
X175172542Y-68182693D01*
X175147142Y-68258893D01*
X174842342Y-68563693D01*
X175172542Y-68563693D01*
D11*
%TO.C,TP6*%
X147052382Y-71561897D02*
X147052382Y-70990469D01*
X148052382Y-71276183D02*
X147052382Y-71276183D01*
X148052382Y-70657135D02*
X147052382Y-70657135D01*
X147052382Y-70276183D01*
X147100002Y-70180945D01*
X147147621Y-70133326D01*
X147242859Y-70085707D01*
X147385716Y-70085707D01*
X147480954Y-70133326D01*
X147528573Y-70180945D01*
X147576192Y-70276183D01*
X147576192Y-70657135D01*
X147052382Y-69228564D02*
X147052382Y-69419040D01*
X147100002Y-69514278D01*
X147147621Y-69561897D01*
X147290478Y-69657135D01*
X147480954Y-69704754D01*
X147861906Y-69704754D01*
X147957144Y-69657135D01*
X148004763Y-69609516D01*
X148052382Y-69514278D01*
X148052382Y-69323802D01*
X148004763Y-69228564D01*
X147957144Y-69180945D01*
X147861906Y-69133326D01*
X147623811Y-69133326D01*
X147528573Y-69180945D01*
X147480954Y-69228564D01*
X147433335Y-69323802D01*
X147433335Y-69514278D01*
X147480954Y-69609516D01*
X147528573Y-69657135D01*
X147623811Y-69704754D01*
D12*
%TO.C,CM3*%
X180054942Y-68512893D02*
X180029542Y-68538293D01*
X179953342Y-68563693D01*
X179902542Y-68563693D01*
X179826342Y-68538293D01*
X179775542Y-68487493D01*
X179750142Y-68436693D01*
X179724742Y-68335093D01*
X179724742Y-68258893D01*
X179750142Y-68157293D01*
X179775542Y-68106493D01*
X179826342Y-68055693D01*
X179902542Y-68030293D01*
X179953342Y-68030293D01*
X180029542Y-68055693D01*
X180054942Y-68081093D01*
X180283542Y-68563693D02*
X180283542Y-68030293D01*
X180461342Y-68411293D01*
X180639142Y-68030293D01*
X180639142Y-68563693D01*
X180842342Y-68030293D02*
X181172542Y-68030293D01*
X180994742Y-68233493D01*
X181070942Y-68233493D01*
X181121742Y-68258893D01*
X181147142Y-68284293D01*
X181172542Y-68335093D01*
X181172542Y-68462093D01*
X181147142Y-68512893D01*
X181121742Y-68538293D01*
X181070942Y-68563693D01*
X180918542Y-68563693D01*
X180867742Y-68538293D01*
X180842342Y-68512893D01*
D13*
%TO.C,J1*%
X140149147Y-65910602D02*
X140149147Y-66273459D01*
X140124956Y-66346031D01*
X140076575Y-66394412D01*
X140004004Y-66418602D01*
X139955623Y-66418602D01*
X140657147Y-66418602D02*
X140366861Y-66418602D01*
X140512004Y-66418602D02*
X140512004Y-65910602D01*
X140463623Y-65983173D01*
X140415242Y-66031554D01*
X140366861Y-66055745D01*
X113551718Y-64809935D02*
X113551718Y-65148602D01*
X113430766Y-64616412D02*
X113309813Y-64979269D01*
X113624290Y-64979269D01*
X113914575Y-64640602D02*
X113962956Y-64640602D01*
X114011337Y-64664793D01*
X114035528Y-64688983D01*
X114059718Y-64737364D01*
X114083909Y-64834126D01*
X114083909Y-64955078D01*
X114059718Y-65051840D01*
X114035528Y-65100221D01*
X114011337Y-65124412D01*
X113962956Y-65148602D01*
X113914575Y-65148602D01*
X113866194Y-65124412D01*
X113842004Y-65100221D01*
X113817813Y-65051840D01*
X113793623Y-64955078D01*
X113793623Y-64834126D01*
X113817813Y-64737364D01*
X113842004Y-64688983D01*
X113866194Y-64664793D01*
X113914575Y-64640602D01*
X140270099Y-64196102D02*
X139979813Y-64196102D01*
X140124956Y-64196102D02*
X140124956Y-63688102D01*
X140076575Y-63760673D01*
X140028194Y-63809054D01*
X139979813Y-63833245D01*
X113285623Y-63688102D02*
X113600099Y-63688102D01*
X113430766Y-63881626D01*
X113503337Y-63881626D01*
X113551718Y-63905816D01*
X113575909Y-63930007D01*
X113600099Y-63978388D01*
X113600099Y-64099340D01*
X113575909Y-64147721D01*
X113551718Y-64171912D01*
X113503337Y-64196102D01*
X113358194Y-64196102D01*
X113309813Y-64171912D01*
X113285623Y-64147721D01*
X113842004Y-64196102D02*
X113938766Y-64196102D01*
X113987147Y-64171912D01*
X114011337Y-64147721D01*
X114059718Y-64075150D01*
X114083909Y-63978388D01*
X114083909Y-63784864D01*
X114059718Y-63736483D01*
X114035528Y-63712293D01*
X113987147Y-63688102D01*
X113890385Y-63688102D01*
X113842004Y-63712293D01*
X113817813Y-63736483D01*
X113793623Y-63784864D01*
X113793623Y-63905816D01*
X113817813Y-63954197D01*
X113842004Y-63978388D01*
X113890385Y-64002578D01*
X113987147Y-64002578D01*
X114035528Y-63978388D01*
X114059718Y-63954197D01*
X114083909Y-63905816D01*
X139979813Y-64688983D02*
X140004004Y-64664793D01*
X140052385Y-64640602D01*
X140173337Y-64640602D01*
X140221718Y-64664793D01*
X140245909Y-64688983D01*
X140270099Y-64737364D01*
X140270099Y-64785745D01*
X140245909Y-64858316D01*
X139955623Y-65148602D01*
X140270099Y-65148602D01*
D12*
%TO.C,CM1*%
X168054949Y-68512903D02*
X168029549Y-68538303D01*
X167953349Y-68563703D01*
X167902549Y-68563703D01*
X167826349Y-68538303D01*
X167775549Y-68487503D01*
X167750149Y-68436703D01*
X167724749Y-68335103D01*
X167724749Y-68258903D01*
X167750149Y-68157303D01*
X167775549Y-68106503D01*
X167826349Y-68055703D01*
X167902549Y-68030303D01*
X167953349Y-68030303D01*
X168029549Y-68055703D01*
X168054949Y-68081103D01*
X168283549Y-68563703D02*
X168283549Y-68030303D01*
X168461349Y-68411303D01*
X168639149Y-68030303D01*
X168639149Y-68563703D01*
X169172549Y-68563703D02*
X168867749Y-68563703D01*
X169020149Y-68563703D02*
X169020149Y-68030303D01*
X168969349Y-68106503D01*
X168918549Y-68157303D01*
X168867749Y-68182703D01*
D11*
%TO.C,TP1*%
X109738095Y-59552373D02*
X110309523Y-59552373D01*
X110023809Y-60552373D02*
X110023809Y-59552373D01*
X110642857Y-60552373D02*
X110642857Y-59552373D01*
X111023809Y-59552373D01*
X111119047Y-59599993D01*
X111166666Y-59647612D01*
X111214285Y-59742850D01*
X111214285Y-59885707D01*
X111166666Y-59980945D01*
X111119047Y-60028564D01*
X111023809Y-60076183D01*
X110642857Y-60076183D01*
X112166666Y-60552373D02*
X111595238Y-60552373D01*
X111880952Y-60552373D02*
X111880952Y-59552373D01*
X111785714Y-59695231D01*
X111690476Y-59790469D01*
X111595238Y-59838088D01*
%TO.C,TP4*%
X145852382Y-136061897D02*
X145852382Y-135490469D01*
X146852382Y-135776183D02*
X145852382Y-135776183D01*
X146852382Y-135157135D02*
X145852382Y-135157135D01*
X145852382Y-134776183D01*
X145900002Y-134680945D01*
X145947621Y-134633326D01*
X146042859Y-134585707D01*
X146185716Y-134585707D01*
X146280954Y-134633326D01*
X146328573Y-134680945D01*
X146376192Y-134776183D01*
X146376192Y-135157135D01*
X146185716Y-133728564D02*
X146852382Y-133728564D01*
X145804763Y-133966659D02*
X146519049Y-134204754D01*
X146519049Y-133585707D01*
%TO.C,J6*%
X115805125Y-133752380D02*
X115805125Y-134466666D01*
X115757506Y-134609523D01*
X115662268Y-134704761D01*
X115519411Y-134752380D01*
X115424173Y-134752380D01*
X116709887Y-133752380D02*
X116519411Y-133752380D01*
X116424173Y-133800000D01*
X116376554Y-133847619D01*
X116281316Y-133990476D01*
X116233697Y-134180952D01*
X116233697Y-134561904D01*
X116281316Y-134657142D01*
X116328935Y-134704761D01*
X116424173Y-134752380D01*
X116614649Y-134752380D01*
X116709887Y-134704761D01*
X116757506Y-134657142D01*
X116805125Y-134561904D01*
X116805125Y-134323809D01*
X116757506Y-134228571D01*
X116709887Y-134180952D01*
X116614649Y-134133333D01*
X116424173Y-134133333D01*
X116328935Y-134180952D01*
X116281316Y-134228571D01*
X116233697Y-134323809D01*
%TO.C,J4*%
X180353966Y-133752380D02*
X180353966Y-134466666D01*
X180306347Y-134609523D01*
X180211109Y-134704761D01*
X180068252Y-134752380D01*
X179973014Y-134752380D01*
X181258728Y-134085714D02*
X181258728Y-134752380D01*
X181020633Y-133704761D02*
X180782538Y-134419047D01*
X181401585Y-134419047D01*
%TO.C,J2*%
X173152380Y-76208333D02*
X173866666Y-76208333D01*
X174009523Y-76255952D01*
X174104761Y-76351190D01*
X174152380Y-76494047D01*
X174152380Y-76589285D01*
X173247619Y-75779761D02*
X173200000Y-75732142D01*
X173152380Y-75636904D01*
X173152380Y-75398809D01*
X173200000Y-75303571D01*
X173247619Y-75255952D01*
X173342857Y-75208333D01*
X173438095Y-75208333D01*
X173580952Y-75255952D01*
X174152380Y-75827380D01*
X174152380Y-75208333D01*
%TO.C,TP2*%
X111385997Y-67452380D02*
X111957425Y-67452380D01*
X111671711Y-68452380D02*
X111671711Y-67452380D01*
X112290759Y-68452380D02*
X112290759Y-67452380D01*
X112671711Y-67452380D01*
X112766949Y-67500000D01*
X112814568Y-67547619D01*
X112862187Y-67642857D01*
X112862187Y-67785714D01*
X112814568Y-67880952D01*
X112766949Y-67928571D01*
X112671711Y-67976190D01*
X112290759Y-67976190D01*
X113243140Y-67547619D02*
X113290759Y-67500000D01*
X113385997Y-67452380D01*
X113624092Y-67452380D01*
X113719330Y-67500000D01*
X113766949Y-67547619D01*
X113814568Y-67642857D01*
X113814568Y-67738095D01*
X113766949Y-67880952D01*
X113195521Y-68452380D01*
X113814568Y-68452380D01*
D14*
%TO.C,TP6*%
X149800002Y-70299993D02*
G75*
G03*
X149800002Y-70299993I-700000J0D01*
G01*
D13*
%TO.C,J1*%
X116623002Y-57997293D02*
X116623002Y-57679793D01*
X112559002Y-63267793D02*
X113829002Y-63267793D01*
X113829002Y-57679793D02*
X116623002Y-57679793D01*
X141134002Y-57679793D02*
X141134002Y-63267793D01*
X112559002Y-63267793D02*
X112559002Y-57679793D01*
X113829002Y-57997293D02*
X116623002Y-57997293D01*
X113829002Y-57679793D02*
X113829002Y-57997293D01*
X112559002Y-57679793D02*
X113829002Y-57679793D01*
X139673502Y-63267793D02*
X141134002Y-63267793D01*
X116623002Y-57679793D02*
X141134002Y-57679793D01*
D14*
%TO.C,TP1*%
X112000002Y-61599993D02*
G75*
G03*
X112000002Y-61599993I-700000J0D01*
G01*
%TO.C,TP4*%
X148600002Y-134799993D02*
G75*
G03*
X148600002Y-134799993I-700000J0D01*
G01*
%TO.C,J2*%
X171850000Y-77235000D02*
X169150000Y-77235000D01*
X171900000Y-74515000D02*
X171260000Y-74515000D01*
X171260000Y-74515000D02*
X171260000Y-73885000D01*
X169100000Y-74515000D02*
X169740000Y-74515000D01*
%TO.C,TP2*%
X113347902Y-66087193D02*
G75*
G03*
X113347902Y-66087193I-700000J0D01*
G01*
%TD*%
%LPC*%
D10*
G36*
X180304163Y-129592893D02*
G01*
X178748528Y-131148528D01*
X177400000Y-129800000D01*
X178955635Y-128244365D01*
X180304163Y-129592893D01*
G37*
X180304163Y-129592893D02*
X178748528Y-131148528D01*
X177400000Y-129800000D01*
X178955635Y-128244365D01*
X180304163Y-129592893D01*
D15*
X174918000Y-93682000D02*
X175182000Y-93418000D01*
X185600028Y-96864000D02*
G75*
G03*
X184282000Y-93682000I-4500028J0D01*
G01*
X173600007Y-122376500D02*
G75*
G03*
X175064500Y-125912100I5000093J0D01*
G01*
X192000000Y-131928900D02*
X192000000Y-123471100D01*
X183818000Y-93218000D02*
X184282000Y-93682000D01*
X177028900Y-146899993D02*
G75*
G03*
X180564500Y-145435500I0J5000093D01*
G01*
X191999993Y-123471100D02*
G75*
G03*
X190535500Y-119935500I-5000093J0D01*
G01*
D10*
X181400000Y-70800000D02*
X183600000Y-70800000D01*
X183600000Y-70800000D02*
X183600000Y-69200000D01*
X183600000Y-69200000D02*
X181400000Y-69200000D01*
X181400000Y-69200000D02*
X181400000Y-70800000D01*
G36*
X181400000Y-70800000D02*
G01*
X183600000Y-70800000D01*
X183600000Y-69200000D01*
X181400000Y-69200000D01*
X181400000Y-70800000D01*
G37*
D15*
X182500000Y-90360000D02*
X182500000Y-70200000D01*
X176500000Y-70400000D02*
X176500000Y-90236000D01*
X170500000Y-70400000D02*
X170500000Y-72000000D01*
X173600000Y-96864000D02*
X173600000Y-122376500D01*
X180564500Y-145435500D02*
X190535500Y-135464500D01*
X185600000Y-112928900D02*
X185600000Y-96864000D01*
X174918019Y-93682019D02*
G75*
G03*
X173600000Y-96864000I3181981J-3181981D01*
G01*
X190535505Y-135464505D02*
G75*
G03*
X192000000Y-131928900I-3535605J3535605D01*
G01*
X133574600Y-146900000D02*
X177028900Y-146900000D01*
X175064500Y-125912100D02*
X178300000Y-129150000D01*
X130039116Y-145435484D02*
G75*
G03*
X133574600Y-146900000I3535584J3535484D01*
G01*
X190535500Y-119935500D02*
X187064500Y-116464500D01*
D10*
X175400000Y-70800000D02*
X177600000Y-70800000D01*
X177600000Y-70800000D02*
X177600000Y-69200000D01*
X177600000Y-69200000D02*
X175400000Y-69200000D01*
X175400000Y-69200000D02*
X175400000Y-70800000D01*
G36*
X175400000Y-70800000D02*
G01*
X177600000Y-70800000D01*
X177600000Y-69200000D01*
X175400000Y-69200000D01*
X175400000Y-70800000D01*
G37*
G36*
X119279899Y-133117157D02*
G01*
X117724264Y-134672792D01*
X116375736Y-133324264D01*
X117931371Y-131768629D01*
X119279899Y-133117157D01*
G37*
X119279899Y-133117157D02*
X117724264Y-134672792D01*
X116375736Y-133324264D01*
X117931371Y-131768629D01*
X119279899Y-133117157D01*
D15*
X185600007Y-112928900D02*
G75*
G03*
X187064500Y-116464500I5000093J0D01*
G01*
X182499973Y-90360001D02*
G75*
G03*
X183818000Y-93218000I4108927J162001D01*
G01*
D10*
X169400000Y-73300000D02*
X171600000Y-73300000D01*
X171600000Y-73300000D02*
X171600000Y-71700000D01*
X171600000Y-71700000D02*
X169400000Y-71700000D01*
X169400000Y-71700000D02*
X169400000Y-73300000D01*
G36*
X169400000Y-73300000D02*
G01*
X171600000Y-73300000D01*
X171600000Y-71700000D01*
X169400000Y-71700000D01*
X169400000Y-73300000D01*
G37*
D15*
X118700000Y-134100000D02*
X130039100Y-145435500D01*
X175181981Y-93417981D02*
G75*
G03*
X176500000Y-90236000I-3181981J3181981D01*
G01*
D10*
X169400000Y-70800000D02*
X171600000Y-70800000D01*
X171600000Y-70800000D02*
X171600000Y-69200000D01*
X171600000Y-69200000D02*
X169400000Y-69200000D01*
X169400000Y-69200000D02*
X169400000Y-70800000D01*
G36*
X169400000Y-70800000D02*
G01*
X171600000Y-70800000D01*
X171600000Y-69200000D01*
X169400000Y-69200000D01*
X169400000Y-70800000D01*
G37*
%TO.C,CM2*%
G36*
X179243202Y-67872193D02*
G01*
X177439802Y-67872193D01*
X177439802Y-65814793D01*
X177947802Y-65814793D01*
X177947802Y-61623793D01*
X179243202Y-61623793D01*
X179243202Y-67872193D01*
G37*
G36*
X175052202Y-65814793D02*
G01*
X175560202Y-65814793D01*
X175560202Y-67872193D01*
X173756802Y-67872193D01*
X173756802Y-61623793D01*
X175052202Y-61623793D01*
X175052202Y-65814793D01*
G37*
%TO.C,CM3*%
G36*
X185243202Y-67872193D02*
G01*
X183439802Y-67872193D01*
X183439802Y-65814793D01*
X183947802Y-65814793D01*
X183947802Y-61623793D01*
X185243202Y-61623793D01*
X185243202Y-67872193D01*
G37*
G36*
X181052202Y-65814793D02*
G01*
X181560202Y-65814793D01*
X181560202Y-67872193D01*
X179756802Y-67872193D01*
X179756802Y-61623793D01*
X181052202Y-61623793D01*
X181052202Y-65814793D01*
G37*
%TO.C,PCB1*%
G36*
X198450000Y-63478154D02*
G01*
X198450000Y-143203277D01*
X198431676Y-143342463D01*
X198376688Y-143475216D01*
X198289213Y-143589213D01*
X198175216Y-143676688D01*
X198042463Y-143731676D01*
X197903277Y-143750000D01*
X195650000Y-143750000D01*
X195650000Y-60885562D01*
X198450000Y-63478154D01*
G37*
G36*
X101350000Y-143750000D02*
G01*
X99096723Y-143750000D01*
X98957537Y-143731676D01*
X98824784Y-143676688D01*
X98710787Y-143589213D01*
X98621265Y-143472548D01*
X98550000Y-143206583D01*
X98550000Y-63479289D01*
X101350000Y-60679289D01*
X101350000Y-143750000D01*
G37*
G36*
X182950000Y-151803277D02*
G01*
X182931676Y-151942463D01*
X182876688Y-152075216D01*
X182789213Y-152189213D01*
X182675216Y-152276688D01*
X182542463Y-152331676D01*
X182403277Y-152350000D01*
X114596723Y-152350000D01*
X114457537Y-152331676D01*
X114324784Y-152276688D01*
X114210787Y-152189213D01*
X114121265Y-152072548D01*
X114050000Y-151806583D01*
X114050000Y-149650000D01*
X182950000Y-149650000D01*
X182950000Y-151803277D01*
G37*
%TO.C,CM1*%
G36*
X169052209Y-65814803D02*
G01*
X169560209Y-65814803D01*
X169560209Y-67872203D01*
X167756809Y-67872203D01*
X167756809Y-61623803D01*
X169052209Y-61623803D01*
X169052209Y-65814803D01*
G37*
G36*
X173243209Y-67872203D02*
G01*
X171439809Y-67872203D01*
X171439809Y-65814803D01*
X171947809Y-65814803D01*
X171947809Y-61623803D01*
X173243209Y-61623803D01*
X173243209Y-67872203D01*
G37*
%TO.C,HW1*%
D16*
X187287300Y-131534900D02*
G75*
G03*
X187287300Y-131534900I-1500000J0D01*
G01*
%TO.C,HW3*%
X138912902Y-133834934D02*
G75*
G03*
X138912902Y-133834934I-1500000J0D01*
G01*
%TO.C,HW5*%
X173450274Y-88973620D02*
G75*
G03*
X173450274Y-88973620I-1500000J0D01*
G01*
%TO.C,HW6*%
X126575530Y-88973620D02*
G75*
G03*
X126575530Y-88973620I-1500000J0D01*
G01*
%TO.C,HW2*%
X161112902Y-129233485D02*
G75*
G03*
X161112902Y-129233485I-1500000J0D01*
G01*
%TO.C,HW4*%
X112738459Y-131534934D02*
G75*
G03*
X112738459Y-131534934I-1500000J0D01*
G01*
%TD*%
D17*
%TO.C,REF\u002A\u002A*%
X179512902Y-99005193D03*
%TD*%
%TO.C,REF\u002A\u002A*%
X105512902Y-106005193D03*
%TD*%
D18*
%TO.C,CM2*%
X176500002Y-68419993D03*
%TD*%
D19*
%TO.C,TP6*%
X149100002Y-70299993D03*
%TD*%
D17*
%TO.C,REF\u002A\u002A*%
X191512902Y-99005193D03*
%TD*%
D18*
%TO.C,CM3*%
X182500002Y-68419993D03*
%TD*%
D17*
%TO.C,REF\u002A\u002A*%
X117512902Y-99005193D03*
%TD*%
%TO.C,REF\u002A\u002A*%
X179512902Y-106005193D03*
%TD*%
D20*
%TO.C,J1*%
X138911502Y-63293193D03*
X138911502Y-65528393D03*
X137641502Y-63293193D03*
X137641502Y-65528393D03*
X136371502Y-63293193D03*
X136371502Y-65528393D03*
X135101502Y-63293193D03*
X135101502Y-65528393D03*
X133831502Y-63293193D03*
X133831502Y-65528393D03*
X132561502Y-63293193D03*
X132561502Y-65528393D03*
X131291502Y-63293193D03*
X131291502Y-65528393D03*
X130021502Y-63293193D03*
X130021502Y-65528393D03*
X128751502Y-63293193D03*
X128751502Y-65528393D03*
X127481502Y-63293193D03*
X127481502Y-65528393D03*
X126211502Y-63293193D03*
X126211502Y-65528393D03*
X124941502Y-63293193D03*
X124941502Y-65528393D03*
X123671502Y-63293193D03*
X123671502Y-65528393D03*
X122401502Y-63293193D03*
X122401502Y-65528393D03*
X121131502Y-63293193D03*
X121131502Y-65528393D03*
X119861502Y-63293193D03*
X119861502Y-65528393D03*
X118591502Y-63293193D03*
X118591502Y-65528393D03*
X117321502Y-63293193D03*
X117321502Y-65528393D03*
X116051502Y-63293193D03*
X116051502Y-65528393D03*
X114781502Y-63293193D03*
X114781502Y-65528393D03*
%TD*%
D18*
%TO.C,CM1*%
X170500009Y-68420003D03*
%TD*%
D19*
%TO.C,TP1*%
X111300002Y-61599993D03*
%TD*%
%TO.C,TP4*%
X147900002Y-134799993D03*
%TD*%
D21*
%TO.C,J6*%
X116138459Y-131534934D03*
%TD*%
%TO.C,J4*%
X180687300Y-131534900D03*
%TD*%
D17*
%TO.C,REF\u002A\u002A*%
X117512902Y-106005193D03*
%TD*%
%TO.C,REF\u002A\u002A*%
X105512902Y-99005193D03*
%TD*%
D21*
%TO.C,FID3*%
X191600002Y-63299993D03*
%TD*%
D22*
%TO.C,J2*%
X170500000Y-74350000D03*
D23*
X169025000Y-75875000D03*
X171975000Y-75875000D03*
%TD*%
D17*
%TO.C,REF\u002A\u002A*%
X191512902Y-106005193D03*
%TD*%
D21*
%TO.C,FID1*%
X106600002Y-140299993D03*
%TD*%
D19*
%TO.C,TP2*%
X112647902Y-66087193D03*
%TD*%
D21*
%TO.C,FID2*%
X106600002Y-63299993D03*
%TD*%
D24*
%TO.C,J3*%
X153885002Y-140249993D03*
X143115002Y-140249993D03*
%TD*%
D25*
%TO.C,HW1*%
X185787300Y-131534900D03*
%TD*%
%TO.C,HW3*%
X137412902Y-133834934D03*
%TD*%
%TO.C,HW5*%
X171950274Y-88973620D03*
%TD*%
D24*
%TO.C,CF1*%
X106000002Y-68214993D03*
X106000002Y-78984993D03*
%TD*%
D25*
%TO.C,HW6*%
X125075530Y-88973620D03*
%TD*%
%TO.C,HW2*%
X159612902Y-129233485D03*
%TD*%
%TO.C,HW4*%
X111238459Y-131534934D03*
%TD*%
D24*
%TO.C,J5*%
X143127902Y-64766393D03*
X153897902Y-64766393D03*
%TD*%
D26*
%TO.C,R1*%
X141488200Y-125837710D03*
X143177790Y-126907889D03*
X153822210Y-133650021D03*
X155511800Y-134720200D03*
%TD*%
M02*
