%TF.GenerationSoftware,KiCad,Pcbnew,6.0.11+dfsg-1*%
%TF.CreationDate,2023-02-20T23:54:33-08:00*%
%TF.ProjectId,minusz-end-card-oresat0,6d696e75-737a-42d6-956e-642d63617264,rev?*%
%TF.SameCoordinates,Original*%
%TF.FileFunction,Paste,Bot*%
%TF.FilePolarity,Positive*%
%FSLAX46Y46*%
G04 Gerber Fmt 4.6, Leading zero omitted, Abs format (unit mm)*
G04 Created by KiCad (PCBNEW 6.0.11+dfsg-1) date 2023-02-20 23:54:33*
%MOMM*%
%LPD*%
G01*
G04 APERTURE LIST*
%ADD10R,0.800000X0.800000*%
%ADD11R,1.200000X2.700000*%
%ADD12R,1.100000X0.800000*%
%ADD13R,2.700000X1.200000*%
G04 APERTURE END LIST*
D10*
%TO.C,J3*%
X145325002Y-138249993D03*
X145325002Y-136979993D03*
X146595002Y-138249993D03*
X146595002Y-136979993D03*
X147865002Y-138249993D03*
X147865002Y-136979993D03*
X149135002Y-138249993D03*
X149135002Y-136979993D03*
X150405002Y-138249993D03*
X150405002Y-136979993D03*
X151675002Y-138249993D03*
X151675002Y-136979993D03*
D11*
X142830002Y-137799993D03*
X142830002Y-142699993D03*
X154170002Y-137799993D03*
X154170002Y-142699993D03*
%TD*%
D12*
%TO.C,CF1*%
X108750002Y-70424993D03*
X103250002Y-70424993D03*
X108750002Y-71694993D03*
X103250002Y-71694993D03*
X108750002Y-72964993D03*
X103250002Y-72964993D03*
X108750002Y-74234993D03*
X103250002Y-74234993D03*
X108750002Y-75504993D03*
X103250002Y-75504993D03*
X108750002Y-76774993D03*
X103250002Y-76774993D03*
D13*
X108450002Y-67929993D03*
X103550002Y-67929993D03*
X108450002Y-79269993D03*
X103550002Y-79269993D03*
%TD*%
D10*
%TO.C,J5*%
X151687902Y-66766393D03*
X151687902Y-68036393D03*
X150417902Y-66766393D03*
X150417902Y-68036393D03*
X149147902Y-66766393D03*
X149147902Y-68036393D03*
X147877902Y-66766393D03*
X147877902Y-68036393D03*
X146607902Y-66766393D03*
X146607902Y-68036393D03*
X145337902Y-66766393D03*
X145337902Y-68036393D03*
D11*
X142842902Y-67216393D03*
X154182902Y-62316393D03*
X142842902Y-62316393D03*
X154182902Y-67216393D03*
%TD*%
M02*
