%TF.GenerationSoftware,KiCad,Pcbnew,6.0.11+dfsg-1*%
%TF.CreationDate,2023-02-20T23:54:33-08:00*%
%TF.ProjectId,minusz-end-card-oresat0,6d696e75-737a-42d6-956e-642d63617264,rev?*%
%TF.SameCoordinates,Original*%
%TF.FileFunction,Soldermask,Bot*%
%TF.FilePolarity,Negative*%
%FSLAX46Y46*%
G04 Gerber Fmt 4.6, Leading zero omitted, Abs format (unit mm)*
G04 Created by KiCad (PCBNEW 6.0.11+dfsg-1) date 2023-02-20 23:54:33*
%MOMM*%
%LPD*%
G01*
G04 APERTURE LIST*
G04 Aperture macros list*
%AMRoundRect*
0 Rectangle with rounded corners*
0 $1 Rounding radius*
0 $2 $3 $4 $5 $6 $7 $8 $9 X,Y pos of 4 corners*
0 Add a 4 corners polygon primitive as box body*
4,1,4,$2,$3,$4,$5,$6,$7,$8,$9,$2,$3,0*
0 Add four circle primitives for the rounded corners*
1,1,$1+$1,$2,$3*
1,1,$1+$1,$4,$5*
1,1,$1+$1,$6,$7*
1,1,$1+$1,$8,$9*
0 Add four rect primitives between the rounded corners*
20,1,$1+$1,$2,$3,$4,$5,0*
20,1,$1+$1,$4,$5,$6,$7,0*
20,1,$1+$1,$6,$7,$8,$9,0*
20,1,$1+$1,$8,$9,$2,$3,0*%
%AMHorizOval*
0 Thick line with rounded ends*
0 $1 width*
0 $2 $3 position (X,Y) of the first rounded end (center of the circle)*
0 $4 $5 position (X,Y) of the second rounded end (center of the circle)*
0 Add line between two ends*
20,1,$1,$2,$3,$4,$5,0*
0 Add two circle primitives to create the rounded ends*
1,1,$1,$2,$3*
1,1,$1,$4,$5*%
G04 Aperture macros list end*
%ADD10C,2.200000*%
%ADD11C,5.000000*%
%ADD12C,1.100000*%
%ADD13O,1.092200X2.057400*%
%ADD14C,2.000000*%
%ADD15C,1.600000*%
%ADD16RoundRect,0.063500X0.400000X0.400000X-0.400000X0.400000X-0.400000X-0.400000X0.400000X-0.400000X0*%
%ADD17RoundRect,0.063500X0.600000X1.350000X-0.600000X1.350000X-0.600000X-1.350000X0.600000X-1.350000X0*%
%ADD18C,3.700000*%
%ADD19RoundRect,0.063500X0.550000X-0.400000X0.550000X0.400000X-0.550000X0.400000X-0.550000X-0.400000X0*%
%ADD20RoundRect,0.063500X1.350000X0.600000X-1.350000X0.600000X-1.350000X-0.600000X1.350000X-0.600000X0*%
%ADD21RoundRect,0.063500X-0.400000X-0.400000X0.400000X-0.400000X0.400000X0.400000X-0.400000X0.400000X0*%
%ADD22RoundRect,0.063500X-0.600000X-1.350000X0.600000X-1.350000X0.600000X1.350000X-0.600000X1.350000X0*%
%ADD23HorizOval,1.477000X-0.361186X-0.570237X0.361186X0.570237X0*%
G04 APERTURE END LIST*
%TO.C,CM2*%
G36*
X175052202Y-66094193D02*
G01*
X173756802Y-66094193D01*
X173756802Y-61623793D01*
X175052202Y-61623793D01*
X175052202Y-66094193D01*
G37*
G36*
X179243202Y-66094193D02*
G01*
X177947802Y-66094193D01*
X177947802Y-61623793D01*
X179243202Y-61623793D01*
X179243202Y-66094193D01*
G37*
%TO.C,CM3*%
G36*
X181052202Y-66094193D02*
G01*
X179756802Y-66094193D01*
X179756802Y-61623793D01*
X181052202Y-61623793D01*
X181052202Y-66094193D01*
G37*
G36*
X185243202Y-66094193D02*
G01*
X183947802Y-66094193D01*
X183947802Y-61623793D01*
X185243202Y-61623793D01*
X185243202Y-66094193D01*
G37*
%TO.C,PCB1*%
G36*
X101350000Y-143750000D02*
G01*
X99096723Y-143750000D01*
X98957537Y-143731676D01*
X98824784Y-143676688D01*
X98710787Y-143589213D01*
X98621265Y-143472548D01*
X98550000Y-143206583D01*
X98550000Y-63479289D01*
X101350000Y-60679289D01*
X101350000Y-143750000D01*
G37*
G36*
X182950000Y-151803277D02*
G01*
X182931676Y-151942463D01*
X182876688Y-152075216D01*
X182789213Y-152189213D01*
X182675216Y-152276688D01*
X182542463Y-152331676D01*
X182403277Y-152350000D01*
X114596723Y-152350000D01*
X114457537Y-152331676D01*
X114324784Y-152276688D01*
X114210787Y-152189213D01*
X114121265Y-152072548D01*
X114050000Y-151806583D01*
X114050000Y-149650000D01*
X182950000Y-149650000D01*
X182950000Y-151803277D01*
G37*
G36*
X198450000Y-63478154D02*
G01*
X198450000Y-143203277D01*
X198431676Y-143342463D01*
X198376688Y-143475216D01*
X198289213Y-143589213D01*
X198175216Y-143676688D01*
X198042463Y-143731676D01*
X197903277Y-143750000D01*
X195650000Y-143750000D01*
X195650000Y-60885562D01*
X198450000Y-63478154D01*
G37*
%TO.C,CM1*%
G36*
X173243209Y-66094203D02*
G01*
X171947809Y-66094203D01*
X171947809Y-61623803D01*
X173243209Y-61623803D01*
X173243209Y-66094203D01*
G37*
G36*
X169052209Y-66094203D02*
G01*
X167756809Y-66094203D01*
X167756809Y-61623803D01*
X169052209Y-61623803D01*
X169052209Y-66094203D01*
G37*
%TO.C,HW1*%
D10*
X186887300Y-131534900D02*
G75*
G03*
X186887300Y-131534900I-1100000J0D01*
G01*
%TO.C,HW3*%
X138512902Y-133834934D02*
G75*
G03*
X138512902Y-133834934I-1100000J0D01*
G01*
%TO.C,HW5*%
X173050274Y-88973620D02*
G75*
G03*
X173050274Y-88973620I-1100000J0D01*
G01*
%TO.C,HW6*%
X126175530Y-88973620D02*
G75*
G03*
X126175530Y-88973620I-1100000J0D01*
G01*
%TO.C,HW2*%
X160712902Y-129233485D02*
G75*
G03*
X160712902Y-129233485I-1100000J0D01*
G01*
%TO.C,HW4*%
X112338459Y-131534934D02*
G75*
G03*
X112338459Y-131534934I-1100000J0D01*
G01*
%TD*%
D11*
%TO.C,REF\u002A\u002A*%
X179512902Y-99005193D03*
%TD*%
%TO.C,REF\u002A\u002A*%
X105512902Y-106005193D03*
%TD*%
D12*
%TO.C,TP6*%
X149100002Y-70299993D03*
%TD*%
D11*
%TO.C,REF\u002A\u002A*%
X191512902Y-99005193D03*
%TD*%
%TO.C,REF\u002A\u002A*%
X117512902Y-99005193D03*
%TD*%
%TO.C,REF\u002A\u002A*%
X179512902Y-106005193D03*
%TD*%
D13*
%TO.C,J1*%
X138911502Y-63293193D03*
X138911502Y-65528393D03*
X137641502Y-63293193D03*
X137641502Y-65528393D03*
X136371502Y-63293193D03*
X136371502Y-65528393D03*
X135101502Y-63293193D03*
X135101502Y-65528393D03*
X133831502Y-63293193D03*
X133831502Y-65528393D03*
X132561502Y-63293193D03*
X132561502Y-65528393D03*
X131291502Y-63293193D03*
X131291502Y-65528393D03*
X130021502Y-63293193D03*
X130021502Y-65528393D03*
X128751502Y-63293193D03*
X128751502Y-65528393D03*
X127481502Y-63293193D03*
X127481502Y-65528393D03*
X126211502Y-63293193D03*
X126211502Y-65528393D03*
X124941502Y-63293193D03*
X124941502Y-65528393D03*
X123671502Y-63293193D03*
X123671502Y-65528393D03*
X122401502Y-63293193D03*
X122401502Y-65528393D03*
X121131502Y-63293193D03*
X121131502Y-65528393D03*
X119861502Y-63293193D03*
X119861502Y-65528393D03*
X118591502Y-63293193D03*
X118591502Y-65528393D03*
X117321502Y-63293193D03*
X117321502Y-65528393D03*
X116051502Y-63293193D03*
X116051502Y-65528393D03*
X114781502Y-63293193D03*
X114781502Y-65528393D03*
%TD*%
D12*
%TO.C,TP1*%
X111300002Y-61599993D03*
%TD*%
%TO.C,TP4*%
X147900002Y-134799993D03*
%TD*%
D14*
%TO.C,J6*%
X116138459Y-131534934D03*
%TD*%
%TO.C,J4*%
X180687300Y-131534900D03*
%TD*%
D11*
%TO.C,REF\u002A\u002A*%
X117512902Y-106005193D03*
%TD*%
%TO.C,REF\u002A\u002A*%
X105512902Y-99005193D03*
%TD*%
%TO.C,REF\u002A\u002A*%
X191512902Y-106005193D03*
%TD*%
D12*
%TO.C,TP2*%
X112647902Y-66087193D03*
%TD*%
D14*
%TO.C,FID4*%
X106600002Y-63299993D03*
%TD*%
D15*
%TO.C,J3*%
X153885002Y-140249993D03*
X143115002Y-140249993D03*
D16*
X145325002Y-138249993D03*
X145325002Y-136979993D03*
X146595002Y-138249993D03*
X146595002Y-136979993D03*
X147865002Y-138249993D03*
X147865002Y-136979993D03*
X149135002Y-138249993D03*
X149135002Y-136979993D03*
X150405002Y-138249993D03*
X150405002Y-136979993D03*
X151675002Y-138249993D03*
X151675002Y-136979993D03*
D17*
X142830002Y-137799993D03*
X142830002Y-142699993D03*
X154170002Y-137799993D03*
X154170002Y-142699993D03*
%TD*%
D18*
%TO.C,HW1*%
X185787300Y-131534900D03*
%TD*%
%TO.C,HW3*%
X137412902Y-133834934D03*
%TD*%
%TO.C,HW5*%
X171950274Y-88973620D03*
%TD*%
D15*
%TO.C,CF1*%
X106000002Y-68214993D03*
X106000002Y-78984993D03*
D19*
X108750002Y-70424993D03*
X103250002Y-70424993D03*
X108750002Y-71694993D03*
X103250002Y-71694993D03*
X108750002Y-72964993D03*
X103250002Y-72964993D03*
X108750002Y-74234993D03*
X103250002Y-74234993D03*
X108750002Y-75504993D03*
X103250002Y-75504993D03*
X108750002Y-76774993D03*
X103250002Y-76774993D03*
D20*
X108450002Y-67929993D03*
X103550002Y-67929993D03*
X108450002Y-79269993D03*
X103550002Y-79269993D03*
%TD*%
D14*
%TO.C,FID5*%
X191600002Y-63299993D03*
%TD*%
D18*
%TO.C,HW6*%
X125075530Y-88973620D03*
%TD*%
%TO.C,HW2*%
X159612902Y-129233485D03*
%TD*%
%TO.C,HW4*%
X111238459Y-131534934D03*
%TD*%
D14*
%TO.C,FID6*%
X106600002Y-140299993D03*
%TD*%
D15*
%TO.C,J5*%
X143127902Y-64766393D03*
X153897902Y-64766393D03*
D21*
X151687902Y-66766393D03*
X151687902Y-68036393D03*
X150417902Y-66766393D03*
X150417902Y-68036393D03*
X149147902Y-66766393D03*
X149147902Y-68036393D03*
X147877902Y-66766393D03*
X147877902Y-68036393D03*
X146607902Y-66766393D03*
X146607902Y-68036393D03*
X145337902Y-66766393D03*
X145337902Y-68036393D03*
D22*
X142842902Y-67216393D03*
X154182902Y-62316393D03*
X142842902Y-62316393D03*
X154182902Y-67216393D03*
%TD*%
D23*
%TO.C,R1*%
X141488200Y-125837710D03*
X143177790Y-126907889D03*
X153822210Y-133650021D03*
X155511800Y-134720200D03*
%TD*%
M02*
