%TF.GenerationSoftware,KiCad,Pcbnew,6.0.11+dfsg-1*%
%TF.CreationDate,2023-02-20T23:54:33-08:00*%
%TF.ProjectId,minusz-end-card-oresat0,6d696e75-737a-42d6-956e-642d63617264,rev?*%
%TF.SameCoordinates,Original*%
%TF.FileFunction,Profile,NP*%
%FSLAX46Y46*%
G04 Gerber Fmt 4.6, Leading zero omitted, Abs format (unit mm)*
G04 Created by KiCad (PCBNEW 6.0.11+dfsg-1) date 2023-02-20 23:54:33*
%MOMM*%
%LPD*%
G01*
G04 APERTURE LIST*
%TA.AperFunction,Profile*%
%ADD10C,0.020000*%
%TD*%
G04 APERTURE END LIST*
D10*
X168922902Y-61705193D02*
X167244953Y-61705193D01*
X101362902Y-148905193D02*
X101362902Y-144205193D01*
X114112902Y-151805193D02*
X114112902Y-149905193D01*
X186780851Y-58705251D02*
G75*
G03*
X186280851Y-59205193I-51J-499949D01*
G01*
X195662902Y-148905193D02*
X195662902Y-144205193D01*
X180922907Y-65405193D02*
G75*
G03*
X181422902Y-65905193I499993J-7D01*
G01*
X166744907Y-61205193D02*
G75*
G03*
X167244953Y-61705193I500093J93D01*
G01*
X166244953Y-58705193D02*
X165012902Y-58705193D01*
X172102902Y-61705193D02*
X172102902Y-65405193D01*
X183412902Y-149405202D02*
G75*
G03*
X182912902Y-149905193I-2J-499998D01*
G01*
X181422902Y-65905193D02*
X183602902Y-65905193D01*
X178102902Y-61705193D02*
X180922902Y-61705193D01*
X98612902Y-63503469D02*
X104411178Y-57705193D01*
X168922907Y-65405193D02*
G75*
G03*
X169422902Y-65905193I499993J-7D01*
G01*
X186280851Y-61205193D02*
X186280851Y-59205193D01*
X195162902Y-149405202D02*
G75*
G03*
X195662902Y-148905193I-2J500002D01*
G01*
X183602902Y-65905202D02*
G75*
G03*
X184102902Y-65405193I-2J500002D01*
G01*
X198412902Y-63503469D02*
X192614626Y-57705193D01*
X113612902Y-149405193D02*
X101862902Y-149405193D01*
X107280851Y-57705193D02*
X104411178Y-57705193D01*
X184102902Y-61705193D02*
X185780851Y-61705193D01*
X180922902Y-61705193D02*
X180922902Y-65405193D01*
X98612907Y-143205193D02*
G75*
G03*
X99112902Y-143705193I499993J-7D01*
G01*
X178102902Y-65405193D02*
X178102902Y-61705193D01*
X174922902Y-61705193D02*
X172102902Y-61705193D01*
X174922902Y-65405193D02*
X174922902Y-61705193D01*
X171012902Y-102505193D02*
G75*
G03*
X171012902Y-102505193I-22500000J0D01*
G01*
X114112907Y-151805193D02*
G75*
G03*
X114612902Y-152305193I499993J-7D01*
G01*
X181082902Y-65905193D02*
G75*
G03*
X181082902Y-65905193I-160000J0D01*
G01*
X163280853Y-57705192D02*
G75*
G03*
X165012902Y-58705193I1732047J999992D01*
G01*
X185780851Y-61705151D02*
G75*
G03*
X186280851Y-61205193I49J499951D01*
G01*
X178262902Y-65905193D02*
G75*
G03*
X178262902Y-65905193I-160000J0D01*
G01*
X197912902Y-143705202D02*
G75*
G03*
X198412902Y-143205193I-2J500002D01*
G01*
X177602902Y-65905202D02*
G75*
G03*
X178102902Y-65405193I-2J500002D01*
G01*
X184262902Y-65905193D02*
G75*
G03*
X184262902Y-65905193I-160000J0D01*
G01*
X114112907Y-149905193D02*
G75*
G03*
X113612902Y-149405193I-500007J-7D01*
G01*
X186780851Y-58705193D02*
X188012902Y-58705193D01*
X184102902Y-65405193D02*
X184102902Y-61705193D01*
X182412902Y-152305202D02*
G75*
G03*
X182912902Y-151805193I-2J500002D01*
G01*
X163280851Y-57705193D02*
X133744953Y-57705193D01*
X130280851Y-57705193D02*
G75*
G03*
X133744953Y-57705193I1732051J1000000D01*
G01*
X100862902Y-143705193D02*
X99112902Y-143705193D01*
X101362907Y-144205193D02*
G75*
G03*
X100862902Y-143705193I-500007J-7D01*
G01*
X171602902Y-65905193D02*
X169422902Y-65905193D01*
X168922902Y-65405193D02*
X168922902Y-61705193D01*
X101362907Y-148905193D02*
G75*
G03*
X101862902Y-149405193I499993J-7D01*
G01*
X166745007Y-59205193D02*
G75*
G03*
X166244953Y-58705193I-500107J-107D01*
G01*
X172262902Y-65905193D02*
G75*
G03*
X172262902Y-65905193I-160000J0D01*
G01*
X166744953Y-61205193D02*
X166744953Y-59205193D01*
X177602902Y-65905193D02*
X175422902Y-65905193D01*
X196162902Y-143705202D02*
G75*
G03*
X195662902Y-144205193I-2J-499998D01*
G01*
X171602902Y-65905202D02*
G75*
G03*
X172102902Y-65405193I-2J500002D01*
G01*
X192614626Y-57705193D02*
X189744953Y-57705193D01*
X130280851Y-57705193D02*
X110744953Y-57705193D01*
X196162902Y-143705193D02*
X197912902Y-143705193D01*
X169082902Y-65905193D02*
G75*
G03*
X169082902Y-65905193I-160000J0D01*
G01*
X98612902Y-143205193D02*
X98612902Y-63503469D01*
X107280851Y-57705193D02*
G75*
G03*
X110744953Y-57705193I1732051J1000000D01*
G01*
X198412902Y-143205193D02*
X198412902Y-63503469D01*
X182412902Y-152305193D02*
X114612902Y-152305193D01*
X188012902Y-58705198D02*
G75*
G03*
X189744953Y-57705193I-2J1999998D01*
G01*
X182912902Y-151805193D02*
X182912902Y-149905193D01*
X175082902Y-65905193D02*
G75*
G03*
X175082902Y-65905193I-160000J0D01*
G01*
X183412902Y-149405193D02*
X195162902Y-149405193D01*
X174922907Y-65405193D02*
G75*
G03*
X175422902Y-65905193I499993J-7D01*
G01*
M02*
